{"title":"Il Commissario Montalbano - 10x01 - Una faccenda delicata","uid":13864932,"size":1094799754,"categoryP":"video","categoryS":"hd___tv_shows","magnet":"?xt=urn:btih:6a0a809c80da1bfc572dc57b3a94c147d3460efe&amp;dn=Il+Commissario+Montalbano+-+10x01+-+Una+faccenda+delicata&amp;tr=udp%3A%2F%2Ftracker.leechers-paradise.org%3A6969&amp;tr=udp%3A%2F%2Fzer0day.ch%3A1337&amp;tr=udp%3A%2F%2Fopen.demonii.com%3A1337&amp;tr=udp%3A%2F%2Ftracker.coppersurfer.tk%3A6969&amp;tr=udp%3A%2F%2Fexodus.desync.com%3A6969","seeders":2,"leechers":1,"uploader":"ziopino","files":1,"time":1458063788,"description":"General\r\nUnique ID                                : 254978122357264415508894118971474882652 (0xBFD30006A0FED1EC9EB8F66FC182B05C)\r\nComplete name                            : Il Commissario Montalbano - 10x01 - Una faccenda delicata.mkv\r\nFormat                                   : Matroska\r\nFormat version                           : Version 4 / Version 2\r\nFile size                                : 1.02 GiB\r\nDuration                                 : 1h 55mn\r\nOverall bit rate                         : 1 264 Kbps\r\nEncoded date                             : UTC 2016-03-01 07:07:25\r\nWriting application                      : mkvmerge v8.9.0 ('Father Daughter') 64bit\r\nWriting library                          : libebml v1.3.3 + libmatroska v1.4.4\r\n\r\nVideo\r\nID                                       : 1\r\nFormat                                   : AVC\r\nFormat/Info                              : Advanced Video Codec\r\nFormat profile                           :   \r\nFormat settings, CABAC                   : Yes\r\nFormat settings, ReFrames                : 7 frames\r\nCodec ID                                 : V_MPEG4/ISO/AVC\r\nDuration                                 : 1h 55mn\r\nBit rate                                 : 1 150 Kbps\r\nWidth                                    : 720 pixels\r\nHeight                                   : 404 pixels\r\nDisplay aspect ratio                     : 16:9\r\nFrame rate mode                          : Constant\r\nFrame rate                               : 25.000 fps\r\nColor space                              : YUV\r\nChroma subsampling                       : 4:2:0\r\nBit depth                                : 8 bits\r\nScan type                                : Progressive\r\nBits/(Pixel*Frame)                       : 0.158\r\nStream size                              : 950 MiB (91%)\r\nWriting library                          : x264 core 148 r2665 a01e339\r\nEncoding settings                        : cabac=1 / ref=7 / deblock=1:-2:-2 / analyse=0x3:0x133 / me=umh / subme=7 / psy=1 / psy_rd=1.00:0.00 / mixed_ref=1 / me_range=16 / chroma_me=1 / trellis=2 / 8x8dct=1 / cqm=0 / deadzone=21,11 / fast_pskip=0 / chroma_qp_offset=-2 / threads=12 / lookahead_threads=2 / sliced_threads=0 / nr=0 / decimate=1 / interlaced=0 / bluray_compat=0 / constrained_intra=0 / bframes=3 / b_pyramid=2 / b_adapt=2 / b_bias=0 / direct=3 / weightb=1 / open_gop=0 / weightp=2 / keyint=250 / keyint_min=23 / scenecut=40 / intra_refresh=0 / rc_lookahead=60 / rc=2pass / mbtree=1 / bitrate=1150 / ratetol=1.0 / qcomp=0.60 / qpmin=0 / qpmax=69 / qpstep=4 / cplxblur=20.0 / qblur=0.5 / ip_ratio=1.40 / aq=1:1.00\r\nDefault                                  : Yes\r\nForced                                   : No\r\n\r\nAudio\r\nID                                       : 2\r\nFormat                                   : AAC\r\nFormat/Info                              : Advanced Audio Codec\r\nFormat profile                           : LC\r\nCodec ID                                 : A_AAC\r\nDuration                                 : 1h 55mn\r\nBit rate                                 : 112 Kbps\r\nChannel(s)                               : 2 channels\r\nChannel positions                        : Front: L R\r\nSampling rate                            : 48.0 KHz\r\nFrame rate                               : 46.875 fps (1024 spf)\r\nCompression mode                         : Lossy\r\nStream size                              : 92.5 MiB (9%)\r\nDefault                                  : Yes\r\nForced                                   : No","torrent":{"xt":"urn:btih:6a0a809c80da1bfc572dc57b3a94c147d3460efe","amp;dn":"Il+Commissario+Montalbano+-+10x01+-+Una+faccenda+delicata","amp;tr":["udp%3A%2F%2Ftracker.leechers-paradise.org%3A6969","udp%3A%2F%2Fzer0day.ch%3A1337","udp%3A%2F%2Fopen.demonii.com%3A1337","udp%3A%2F%2Ftracker.coppersurfer.tk%3A6969","udp%3A%2F%2Fexodus.desync.com%3A6969"],"infoHash":"6a0a809c80da1bfc572dc57b3a94c147d3460efe","infoHashBuffer":{"type":"Buffer","data":[106,10,128,156,128,218,27,252,87,45,197,123,58,148,193,71,211,70,14,254]},"announce":[],"urlList":[]}}